<svg width="177" height="52" viewBox="0 0 177 52" fill="none" xmlns="http://www.w3.org/2000/svg">
<g clip-path="url(#clip0_1219_6983)">
<path d="M31.5146 51.3287H26.5528V15.825H5.04106V51.3287H0V11.2686H31.5146V51.3287Z" fill="black"/>
<path d="M43.3015 16.1885C46.6305 12.4691 51.1405 10.6055 56.8474 10.6055C62.5542 10.6055 67.0642 12.4691 70.3933 16.1885C73.7223 19.9078 75.3788 24.9538 75.3788 31.3186C75.3788 37.6834 73.7143 42.7215 70.3933 46.433C67.0642 50.1444 62.5542 52.0002 56.8474 52.0002C51.1405 52.0002 46.6305 50.1444 43.3015 46.433C39.9725 42.7215 38.3159 37.6834 38.3159 31.3186C38.3159 24.9538 39.9804 19.9078 43.3015 16.1885ZM66.6125 19.5604C64.2029 16.6623 60.9531 15.2172 56.8474 15.2172C52.7416 15.2172 49.4839 16.6623 47.0823 19.5604C44.6727 22.4585 43.4759 26.3752 43.4759 31.3186C43.4759 36.262 44.6807 40.1551 47.0823 43.0453C49.4919 45.9434 52.7416 47.3885 56.8474 47.3885C60.9531 47.3885 64.2108 45.9434 66.6125 43.0453C69.022 40.1472 70.2189 36.2383 70.2189 31.3186C70.2189 26.3989 69.0141 22.4585 66.6125 19.5604Z" fill="black"/>
<path d="M106.917 51.3287L95.5192 17.6254H95.3528L83.9549 51.3287H78.6919L92.9591 11.2686H97.9209L112.188 51.3287H106.925H106.917Z" fill="black"/>
<path d="M141.975 46.8355V51.3367H117.062V11.2686H141.975V15.7698H122.08V28.6257H140.944V33.0715H122.08V46.8434H141.975V46.8355ZM132.027 8.02308H127.739L133.866 0H139.272L132.027 8.02308Z" fill="black"/>
<path d="M164.326 51.3287H159.308V15.7697H146.626V11.2686H177V15.7697H164.318V51.3366L164.326 51.3287Z" fill="black"/>
</g>
<defs>
<clipPath id="clip0_1219_6983">
<rect width="177" height="52" fill="white"/>
</clipPath>
</defs>
</svg>
